<?xml version="1.0" encoding="iso-8859-1"?>
<!-- Generator: Adobe Illustrator 19.0.0, SVG Export Plug-In . SVG Version: 6.00 Build 0)  -->
<svg version="1.1" id="Layer_1" xmlns="http://www.w3.org/2000/svg" xmlns:xlink="http://www.w3.org/1999/xlink" x="0px" y="0px"
	 viewBox="0 0 512 512" style="enable-background:new 0 0 512 512;" xml:space="preserve">
<path style="fill:#FF6464;" d="M439.895,119.594c0,0,0.023,12.111,0.06,32.021l40.026-0.075l-0.12-64.032l-8.005,0.005
	C454.245,87.546,439.862,101.983,439.895,119.594z"/>
<path style="fill:#FFA05A;" d="M440.061,207.652l40.026-0.075l-0.105-56.037l-40.026,0.075
	C439.983,166.521,440.02,185.798,440.061,207.652z"/>
<path style="fill:#FFE164;" d="M440.166,263.69l40.027-0.075l-0.105-56.037l-40.026,0.075
	C440.093,225.01,440.129,243.989,440.166,263.69z"/>
<path style="fill:#A5D76E;" d="M440.272,319.726l40.026-0.075l-0.105-56.037l-40.027,0.075
	C440.2,281.989,440.236,300.908,440.272,319.726z"/>
<path style="fill:#8F96AC;" d="M95.457,8.166c-17.612,0.033-31.994,14.47-31.961,32.081l0.03,16.012l0.06,16.554l0.632,364.241
	l0.06,19.468l0.03,16.011c0.033,17.612,14.47,31.994,32.081,31.961l32.026-0.06L127.483,8.106L95.457,8.166z"/>
<path style="fill:#B4E1FA;" d="M440.272,319.726c0.036,19.035,0.071,37.961,0.105,56.037l40.027-0.075l-0.105-56.037
	L440.272,319.726z"/>
<path style="fill:#C3E678;" d="M437.766,375.768l2.611-0.005c-0.034-18.076-0.069-37.003-0.105-56.037l-2.611,0.005l2.611-0.005
	c-0.035-18.818-0.071-37.737-0.105-56.037l-2.611,0.005l2.611-0.005c-0.037-19.701-0.073-38.68-0.105-56.037l-2.611,0.005
	l2.611-0.005c-0.041-21.853-0.077-41.131-0.105-56.037l-2.611,0.005l2.611-0.005c-0.037-19.91-0.06-32.021-0.06-32.021
	c-0.033-17.612,14.35-32.048,31.961-32.081l8.005-0.005l-0.09-48.042c-0.033-17.612-14.47-31.994-32.081-31.961L127.483,8.106
	l0.933,496.328l280.179-0.526c17.685-0.033,31.994-14.383,31.961-32.066c-0.017-9.167-0.037-19.993-0.06-32.051h-12.729h12.729
	c-0.035-18.855-0.076-40.731-0.12-64.027L437.766,375.768z"/>
<path style="fill:#AFB9D2;" d="M440.497,439.79h8.006c17.612-0.033,31.994-14.47,31.961-32.081l-0.06-32.021l-40.027,0.075
	C440.42,399.059,440.461,420.935,440.497,439.79z"/>
<path style="fill:#EBF5AA;" d="M379.917,323.493c0,0-13.077,13.126-22.836,22.922c-4.839,4.855-14.164,6.293-20.559,2.934
	c-62.867-34.634-108.681-79.965-143.551-142.701c-3.383-6.381-1.98-15.712,2.857-20.57c9.759-9.796,22.836-22.922,22.836-22.922
	c4.954-4.973,13.078-4.988,18.051-0.034l28.48,28.373c4.973,4.954,4.988,13.078,0.034,18.051l-4.504,4.521
	c-4.954,4.973-13.078,4.988-18.051,0.034l-7.825,7.855c23.897,32.92,52.893,61.808,85.903,85.581l7.825-7.855
	c-4.973-4.954-4.988-13.078-0.034-18.051l4.504-4.521c4.954-4.973,13.078-4.988,18.051-0.034l28.786,28.366
	C384.856,310.398,384.871,318.52,379.917,323.493"/>
<g>
	<path style="fill:#C7CFE2;" d="M96.27,440.453c0.017,8.842-7.139,16.024-15.981,16.041l-32.021,0.06
		c-8.842,0.017-16.024-7.139-16.041-15.981c-0.017-8.842,7.139-16.024,15.981-16.041l32.021-0.06
		C89.071,424.455,96.254,431.611,96.27,440.453z"/>
	<path style="fill:#C7CFE2;" d="M95.578,72.209c0.017,8.842-7.139,16.024-15.981,16.041l-32.021,0.06
		c-8.842,0.017-16.024-7.139-16.041-15.981s7.139-16.024,15.981-16.041l32.021-0.06C88.379,56.212,95.561,63.367,95.578,72.209z"/>
</g>
<path d="M487.593,207.563v-0.001v-0.001l-0.226-120.077c0-0.001,0-0.001,0-0.002c0,0,0-0.001,0-0.002l-0.09-48.03
	C487.236,17.681,469.514,0,447.751,0c-0.024,0-0.052,0-0.076,0L95.442,0.662c-21.793,0.041-39.491,17.806-39.451,39.6l0.016,8.506
	l-8.506,0.016c-12.967,0.024-23.496,10.593-23.472,23.56c0.024,12.943,10.573,23.472,23.515,23.472c0.005,0,0.04,0,0.045,0
	l8.506-0.016L56.7,417.012l-8.506,0.016c-12.967,0.024-23.496,10.593-23.472,23.56c0.024,12.943,10.573,23.472,23.516,23.472
	c0.005,0,0.04,0,0.045,0l8.506-0.016l0.016,8.506c0.02,10.523,4.16,20.431,11.657,27.899C75.941,507.9,85.834,512,96.329,512
	c0.025,0,0.051,0,0.076,0l32.005-0.06h0.001c0.005,0,0.01,0,0.015,0h0.001l280.183-0.526c21.794-0.041,39.492-17.799,39.452-39.586
	l-0.046-24.556c0.162,0.01,0.323,0.025,0.487,0.025c0.005,0,0.01,0,0.015,0c21.794-0.041,39.492-17.806,39.452-39.6L487.593,207.563
	z M447.4,119.579c-0.012-6.513,2.536-12.664,7.176-17.321c4.639-4.657,10.781-7.229,17.294-7.241l0.5-0.001l0.092,49.032
	l-25.017,0.047L447.4,119.579z M472.569,200.086l-25.017,0.047l-0.077-41.027l25.017-0.047L472.569,200.086z M472.597,215.096
	l0.077,41.027l-25.018,0.047l-0.077-41.027L472.597,215.096z M447.684,271.181l25.018-0.047l0.077,41.027l-25.018,0.046
	L447.684,271.181z M447.789,327.217l25.018-0.047l0.077,41.027l-25.018,0.047L447.789,327.217z M47.562,80.805l-0.017,7.505v-7.505
	c-4.681,0-8.496-3.809-8.505-8.49c-0.009-4.69,3.8-8.513,8.49-8.522l15.983-0.03c0.004,0,0.009,0.001,0.013,0.001
	c0.005,0,0.01,0,0.015,0s0.01-0.001,0.014-0.001l16.013-0.03c4.681,0,8.497,3.809,8.506,8.49c0.004,2.271-0.877,4.409-2.481,6.018
	c-1.604,1.61-3.738,2.499-6.01,2.503L47.562,80.805z M48.254,449.048l-0.017,7.505v-7.505c-4.681,0-8.497-3.809-8.506-8.49
	c-0.009-4.69,3.8-8.513,8.49-8.522l32.038-0.06c4.681,0,8.496,3.809,8.505,8.49c0.009,4.69-3.8,8.513-8.49,8.522l-15.996,0.03
	c-0.005,0-0.01-0.001-0.015-0.001s-0.01,0.001-0.015,0.001L48.254,449.048z M408.581,496.403l-272.679,0.512l-0.723-384.755
	c-0.008-4.14-3.366-7.491-7.505-7.491c-0.005,0-0.01,0-0.015,0c-4.145,0.008-7.499,3.374-7.491,7.519l0.723,384.754l-24.516,0.046
	c-0.016,0-0.031,0-0.047,0c-6.495,0-12.629-2.547-17.274-7.176c-4.657-4.639-7.229-10.781-7.241-17.294l-0.016-8.506l8.506-0.016
	c12.967-0.024,23.496-10.593,23.472-23.56c-0.024-12.943-10.573-23.472-23.56-23.472l-8.506,0.016L71.104,95.768l8.506-0.016
	c6.281-0.012,12.181-2.469,16.615-6.92c4.433-4.45,6.869-10.36,6.857-16.641c-0.023-12.94-10.572-23.469-23.559-23.469l-8.506,0.016
	l-0.016-8.505c-0.025-13.519,10.952-24.537,24.47-24.562l24.516-0.046l0.031,16.511c0.008,4.141,3.366,7.491,7.505,7.491
	c0.005,0,0.01,0,0.015,0c4.145-0.008,7.499-3.374,7.491-7.519l-0.031-16.511l312.706-0.588c0.017,0,0.031,0,0.047,0
	c13.496,0,24.49,10.968,24.515,24.47l0.076,40.527l-0.5,0.001c-21.794,0.041-39.493,17.806-39.452,39.6l0.66,352.247
	C433.076,485.365,422.099,496.378,408.581,496.403z M448.489,432.285c-0.169,0-0.335,0.015-0.501,0.026l-0.093-49.057l25.018-0.047
	l0.046,24.516C472.984,421.241,462.007,432.26,448.489,432.285z"/>
<path d="M127.584,56.639c-0.005,0-0.01,0-0.015,0c-4.145,0.008-7.499,3.374-7.491,7.519l0.03,16.011
	c0.008,4.14,3.366,7.491,7.505,7.491c0.005,0,0.01,0,0.015,0c4.145-0.008,7.499-3.374,7.491-7.519l-0.03-16.011
	C135.081,59.99,131.723,56.639,127.584,56.639z"/>
<path d="M385.15,300.097l-28.756-28.337c-3.816-3.802-8.895-5.895-14.305-5.895c-0.013,0-0.026,0-0.039,0
	c-5.424,0.01-10.51,2.122-14.322,5.948l-4.504,4.522c-5.372,5.393-7.066,13.075-5.104,19.919
	c-27.178-20.547-51.337-44.616-71.985-71.715c1.781,0.501,3.639,0.775,5.544,0.775c0.013,0,0.026,0,0.039,0
	c5.424-0.01,10.51-2.122,14.321-5.948l4.503-4.521c3.812-3.826,5.905-8.92,5.895-14.344c-0.01-5.424-2.122-10.51-5.948-14.32
	l-28.48-28.374c-7.734-7.704-20.168-7.838-28.094-0.463c-0.197,0.161-0.387,0.333-0.57,0.517l0,0l0,0l0,0l-22.836,22.922
	c-7.227,7.255-9.058,20.16-4.17,29.38c0.023,0.044,0.047,0.087,0.071,0.131c35.486,63.844,82.034,110.119,146.49,145.628
	c0.043,0.024,0.087,0.048,0.131,0.071c3.46,1.817,7.432,2.691,11.43,2.691c6.673,0,13.415-2.436,17.936-6.973l22.836-22.922l0,0
	c3.812-3.826,5.904-8.919,5.894-14.343C391.118,309.023,389.005,303.937,385.15,300.097z M351.764,341.118
	c-2.549,2.558-8.322,3.349-11.698,1.616c-61.809-34.069-106.456-78.449-140.492-139.653c-1.747-3.37-0.977-9.147,1.571-11.704
	l22.835-22.922l0,0l0,0c2.012-2.02,5.419-2.025,7.437-0.014l28.48,28.373c0.985,0.982,1.529,2.302,1.532,3.715
	c0.003,1.415-0.536,2.737-1.518,3.721l-4.504,4.521c-0.982,0.986-2.302,1.529-3.715,1.532c-0.003,0-0.007,0-0.011,0
	c-1.41,0-2.727-0.538-3.709-1.517c-0.001-0.001-0.001-0.001-0.001-0.001c-1.469-1.463-3.391-2.192-5.312-2.189
	s-3.84,0.74-5.303,2.208l0,0l0,0l-7.825,7.855c-2.601,2.611-2.921,6.723-0.757,9.705c24.406,33.622,53.876,62.981,87.59,87.262
	c1.318,0.95,2.855,1.415,4.383,1.415c1.939,0,3.865-0.748,5.319-2.208l7.825-7.855c0.365-0.367,0.685-0.763,0.96-1.179
	c1.918-2.917,1.59-6.875-0.98-9.434c-2.019-2.012-2.025-5.419-0.014-7.438l4.503-4.521c0.982-0.986,2.302-1.529,3.716-1.532
	c0.003,0,0.007,0,0.01,0c1.411,0,2.729,0.539,3.74,1.547l28.757,28.337c0.985,0.981,1.529,2.301,1.532,3.715
	c0.002,1.415-0.536,2.736-1.518,3.721l0,0l0,0L351.764,341.118z"/>
<g>
</g>
<g>
</g>
<g>
</g>
<g>
</g>
<g>
</g>
<g>
</g>
<g>
</g>
<g>
</g>
<g>
</g>
<g>
</g>
<g>
</g>
<g>
</g>
<g>
</g>
<g>
</g>
<g>
</g>
</svg>
